<?xml version="1.0" standalone="no"?>
<!DOCTYPE svg PUBLIC "-//W3C//DTD SVG 20010904//EN"
 "http://www.w3.org/TR/2001/REC-SVG-20010904/DTD/svg10.dtd">
<svg version="1.0" xmlns="http://www.w3.org/2000/svg"
 width="700.000000pt" height="700.000000pt" viewBox="0 0 700.000000 700.000000"
 preserveAspectRatio="xMidYMid meet">
<g transform="translate(0.000000,700.000000) scale(0.100000,-0.100000)"
fill="#000000" stroke="none">
<path d="M1969 5885 c-2 -2 -40 -6 -84 -9 -44 -4 -91 -8 -105 -11 -14 -2 -43
-7 -65 -10 -114 -16 -181 -29 -295 -56 -184 -43 -273 -71 -465 -144 -118 -44
-126 -48 -276 -122 l-147 -73 -7 -47 c-4 -27 -9 -61 -11 -78 -2 -16 -15 -127
-29 -245 -14 -118 -28 -231 -30 -251 -3 -20 -8 -56 -10 -80 -2 -24 -7 -60 -9
-79 -3 -19 -8 -55 -10 -80 -3 -25 -17 -135 -30 -245 -14 -110 -28 -225 -31
-255 -4 -30 -8 -66 -10 -80 -2 -14 -7 -50 -10 -80 -3 -30 -8 -66 -10 -80 -6
-45 -14 -114 -20 -175 -4 -33 -8 -67 -10 -75 -3 -8 -7 -40 -10 -70 -5 -49 -17
-151 -31 -265 -3 -22 -7 -51 -9 -65 -2 -14 -7 -53 -10 -87 -3 -34 -7 -70 -9
-80 -2 -10 -7 -45 -10 -78 -4 -33 -9 -76 -11 -95 -3 -19 -12 -93 -20 -165 -9
-71 -18 -141 -20 -155 -4 -25 -8 -65 -21 -185 -3 -33 -8 -62 -9 -65 -2 -3 -6
-39 -10 -79 -4 -41 -9 -84 -11 -95 -2 -12 -6 -43 -9 -71 -3 -27 -8 -61 -10
-75 -3 -14 -7 -50 -10 -80 -3 -30 -8 -73 -11 -95 -8 -69 -15 -119 -19 -155 -2
-19 -7 -60 -11 -90 -3 -30 -8 -66 -9 -80 -2 -23 -12 -98 -20 -160 -2 -14 -6
-50 -10 -80 -3 -30 -8 -72 -11 -94 l-5 -39 122 7 c68 4 125 9 128 11 4 1 29 6
56 9 159 18 353 78 620 191 332 141 591 218 880 260 236 35 533 39 710 10 17
-3 46 -8 65 -11 105 -17 284 -69 377 -109 194 -85 394 -216 508 -333 l31 -31
39 35 c143 127 255 204 404 279 158 80 352 141 541 170 159 24 473 24 640 0
19 -3 55 -7 80 -10 25 -3 52 -7 60 -10 8 -2 33 -6 55 -10 22 -3 78 -15 125
-26 47 -11 96 -23 110 -25 69 -14 369 -122 546 -197 266 -113 415 -159 589
-183 22 -3 51 -7 65 -10 14 -2 76 -7 139 -10 l113 -7 -5 29 c-3 16 -9 56 -12
89 -8 76 -15 143 -20 175 -2 14 -7 48 -10 75 -3 28 -8 64 -10 80 -2 17 -11 93
-20 170 -8 77 -20 172 -25 210 -5 39 -12 93 -15 120 -3 28 -8 61 -10 75 -2 14
-6 52 -10 85 -3 33 -8 71 -10 85 -4 28 -6 47 -35 285 -11 94 -22 184 -25 200
-2 17 -9 73 -15 125 -12 106 -19 163 -25 200 -2 14 -6 52 -10 85 -3 33 -8 74
-10 90 -2 17 -7 53 -10 80 -3 28 -7 61 -10 75 -2 14 -7 50 -10 80 -3 30 -8 71
-10 90 -3 19 -7 55 -10 80 -3 25 -7 61 -10 80 -2 19 -7 60 -11 90 -7 70 -13
115 -19 163 -9 70 -14 112 -30 242 -14 121 -18 150 -30 245 -2 19 -7 58 -10
85 -3 28 -8 66 -10 85 -8 59 -15 123 -21 170 -2 25 -6 61 -9 80 -3 19 -7 55
-10 80 -3 25 -16 130 -29 235 -14 104 -23 193 -20 196 11 18 -220 133 -426
212 -166 64 -381 130 -495 153 -11 2 -54 11 -95 19 -101 21 -107 22 -170 30
-30 4 -62 9 -70 10 -103 19 -533 27 -680 12 -120 -12 -164 -17 -178 -22 -7 -2
-34 -7 -60 -10 -26 -4 -65 -11 -87 -17 -22 -5 -48 -12 -57 -13 -159 -31 -418
-138 -591 -244 l-69 -42 -63 40 c-219 138 -510 243 -795 285 -58 8 -123 18
-145 21 -45 7 -520 16 -526 10z m551 -483 c30 -6 73 -14 94 -17 270 -39 626
-211 844 -407 l42 -39 23 22 c46 44 184 148 250 188 202 123 449 214 672 247
17 2 59 8 95 14 66 9 487 7 550 -4 19 -3 58 -8 85 -11 28 -4 88 -13 135 -21
47 -9 99 -18 115 -20 112 -18 422 -116 552 -174 l61 -28 7 -68 c4 -38 9 -80
11 -94 2 -14 6 -50 9 -80 5 -51 14 -115 20 -150 2 -9 6 -47 9 -85 4 -39 9 -83
11 -100 8 -54 14 -99 20 -158 4 -32 8 -67 10 -78 2 -11 7 -50 10 -87 3 -37 8
-74 10 -82 2 -8 7 -40 10 -70 7 -68 23 -196 40 -335 2 -16 7 -52 10 -80 3 -27
7 -63 10 -80 4 -29 9 -65 20 -170 3 -27 8 -66 10 -85 3 -19 9 -75 15 -125 6
-49 13 -101 15 -115 2 -14 7 -54 11 -90 4 -36 8 -74 9 -85 2 -11 6 -45 10 -75
3 -30 8 -66 10 -80 2 -14 6 -50 10 -80 3 -30 8 -71 10 -90 2 -19 9 -71 14
-115 6 -44 13 -102 16 -130 3 -27 7 -61 10 -75 2 -14 7 -52 10 -85 3 -33 8
-67 10 -75 2 -8 7 -46 10 -85 6 -63 16 -148 29 -245 18 -130 18 -133 4 -127
-257 104 -453 179 -568 219 -201 68 -456 134 -590 153 -25 3 -63 8 -85 12
-262 37 -672 32 -876 -13 -13 -3 -35 -7 -49 -10 -78 -15 -238 -60 -320 -91
-95 -35 -306 -136 -410 -195 l-55 -31 -70 43 c-222 137 -559 258 -820 295 -23
3 -51 7 -64 10 -112 21 -545 21 -686 0 -16 -3 -48 -7 -70 -10 -183 -25 -282
-47 -505 -112 -68 -19 -228 -72 -255 -84 -11 -4 -81 -31 -155 -60 -74 -28
-177 -69 -229 -90 -51 -21 -95 -39 -97 -39 -2 0 -2 15 1 32 7 54 16 130 21
173 2 22 6 56 8 75 7 51 18 141 21 170 2 23 12 98 20 160 2 14 6 50 10 80 3
30 8 71 10 90 3 19 9 76 15 125 6 50 13 108 16 130 2 22 7 57 9 78 3 20 7 54
10 75 2 20 6 55 9 77 3 22 8 64 12 94 3 29 8 68 9 85 2 17 6 54 10 81 5 47 8
64 20 155 2 19 7 58 10 85 3 28 8 64 10 80 3 17 7 52 10 79 2 27 9 83 14 125
6 42 13 99 16 126 3 28 10 84 15 125 5 41 12 102 15 135 4 33 8 67 10 75 2 8
7 44 10 80 4 36 8 72 10 80 1 8 6 44 10 80 3 36 8 76 10 90 2 14 9 66 15 115
6 50 12 106 15 125 2 19 7 58 10 85 3 28 8 66 10 85 20 153 23 177 24 208 1
19 15 30 74 56 191 88 551 184 792 211 28 3 79 10 115 14 90 11 513 6 580 -7z"/>
<path d="M1985 5289 c-38 -3 -97 -10 -130 -13 -68 -8 -236 -36 -245 -41 -3 -2
-21 -6 -40 -9 -19 -3 -78 -17 -130 -31 -52 -14 -102 -27 -110 -29 -42 -11
-244 -86 -251 -93 -4 -4 -10 -33 -13 -63 -4 -30 -8 -71 -11 -90 -3 -19 -7 -55
-10 -80 -3 -25 -7 -61 -10 -80 -2 -19 -7 -55 -10 -80 -5 -46 -22 -191 -29
-245 -2 -16 -7 -59 -11 -95 -4 -36 -9 -72 -10 -80 -2 -8 -6 -42 -10 -75 -3
-33 -8 -73 -10 -90 -2 -16 -11 -88 -20 -160 -9 -71 -18 -148 -21 -170 -2 -22
-6 -57 -9 -77 -7 -56 -14 -107 -20 -160 -3 -27 -7 -69 -10 -95 -5 -47 -10 -85
-20 -160 -2 -21 -7 -58 -10 -83 -3 -25 -10 -79 -15 -120 -5 -41 -12 -100 -15
-130 -3 -30 -8 -66 -10 -80 -2 -14 -7 -47 -10 -75 -8 -71 -15 -128 -26 -220
-5 -44 -12 -96 -14 -115 -2 -19 -7 -53 -9 -75 -3 -22 -8 -62 -11 -90 -3 -27
-7 -66 -10 -85 -3 -19 -7 -62 -10 -95 -3 -33 -8 -66 -10 -73 -3 -7 -8 -49 -11
-93 l-7 -80 49 20 c27 10 85 33 129 51 81 32 388 136 428 145 12 2 47 11 77
19 94 27 331 72 420 81 30 4 66 8 80 11 36 6 251 17 350 17 375 1 740 -78
1059 -229 63 -30 138 -69 165 -86 l51 -31 55 29 c30 15 71 37 90 49 123 73
436 187 605 219 197 38 314 49 535 50 84 1 134 5 134 11 -1 6 -5 66 -8 135 -4
69 -9 150 -11 180 -2 30 -6 102 -10 160 -3 58 -7 132 -9 165 -3 33 -7 110 -10
170 -4 61 -9 135 -11 165 -2 30 -7 105 -10 165 -3 61 -8 135 -10 165 -2 30 -7
100 -10 155 -3 55 -7 134 -10 175 -3 41 -7 116 -10 165 -3 50 -7 122 -10 160
-3 39 -7 111 -10 160 -6 109 -13 219 -21 345 -3 52 -7 124 -9 160 -3 73 -16
266 -20 320 -2 19 -3 59 -4 88 l-1 52 -82 -5 c-187 -12 -399 -56 -529 -109
-35 -15 -68 -28 -74 -30 -28 -7 -162 -82 -241 -134 -84 -57 -231 -176 -281
-229 l-23 -24 -62 60 c-250 239 -593 409 -903 446 -27 4 -59 9 -70 12 -29 8
-400 10 -480 2z"/>
</g>
</svg>
